<svg width="2044" height="1977" xmlns="http://www.w3.org/2000/svg" xmlns:xlink="http://www.w3.org/1999/xlink" xml:space="preserve" overflow="hidden"><defs><clipPath id="clip0"><rect x="1176" y="252" width="2044" height="1977"/></clipPath></defs><g clip-path="url(#clip0)" transform="translate(-1176 -252)"><path d="M2161.04 557.663C2152.71 559.141 2148.33 566.368 2148.33 579.29 2148.33 590.24 2150.96 591.992 2177.69 601.191 2194.34 606.447 2218.01 615.645 2231.15 621.339 2243.86 627.033 2255.26 630.975 2256.13 630.1 2259.64 626.595 2216.69 583.232 2197.41 570.529 2181.63 560.455 2169.36 556.185 2161.04 557.663ZM2442.44 259.485C2447.97 260.087 2459.25 262.605 2479.19 267.424 2833.28 352.836 3128.65 671.711 3202.27 1047.97 3264.06 1366.4 3162.39 1692.72 2927.94 1927.5 2683.84 2171.91 2340.27 2274.84 1987.5 2210.02 1874 2189.43 1764.88 2143.88 1695.2 2089.13 1676.8 2074.67 1661.9 2061.09 1661.9 2058.9 1661.9 2057.15 1682.49 2064.16 1707.91 2074.67 1947.18 2174.98 2194.78 2171.03 2417.84 2064.16 2467.36 2040.51 2548.43 1993.2 2553.25 1985.32 2554.57 1983.56 2525.64 1997.14 2488.83 2015.54 2347.72 2086.5 2213.63 2116.28 2058.49 2110.59 2019.93 2109.27 1969.53 2104.89 1946.74 2100.95 1569.87 2038.32 1267.05 1760.62 1192.99 1410.64 1172.39 1311.65 1170.2 1182.87 1188.17 1080.38 1197.81 1026.06 1223.23 930.577 1235.5 902.983L1242.51 887.652 1246.02 927.073C1260.92 1098.34 1311.75 1230.18 1411.23 1358.52 1448.04 1405.39 1505.89 1463.2 1553.21 1499.56 1604.93 1539.86 1607.12 1539.86 1567.24 1498.24 1493.18 1421.59 1441.9 1348.44 1394.14 1251.2 1325.77 1111.48 1295.1 968.247 1306.93 845.603 1318.32 724.273 1358.2 636.232 1437.08 557.389 1457.24 537.24 1474.33 521.472 1475.65 522.786 1476.52 523.662 1471.7 539.431 1464.69 557.389 1443.66 611.265 1437.08 659.009 1439.71 732.157 1442.34 798.297 1449.35 834.214 1470.39 889.842 1528.67 1044.9 1654.01 1162.29 1802.13 1201.27 1856.91 1215.73 1927.9 1214.85 1974.35 1199.96 2062.44 1170.61 2129.05 1097.46 2143.95 1012.92 2163.67 903.421 2076.9 788.661 1960.77 770.703 1888.02 759.314 1808.7 795.669 1756.99 863.561L1745.16 878.892 1745.16 848.231C1745.16 785.595 1771.89 721.207 1817.91 671.273 1869.62 615.645 1934.91 584.108 2008.53 579.728L2046.22 577.538 2056.74 553.009C2069.45 521.91 2105.38 485.117 2129.05 478.546 2150.52 472.414 2183.83 472.414 2209.68 478.546 2262.71 490.811 2341.59 538.555 2428.8 612.141 2516.88 686.165 2616.8 745.736 2699.62 772.893 2717.15 779.025 2732.49 784.719 2733.8 786.033 2735.12 786.909 2721.53 792.603 2704 797.859 2660.62 811 2642.21 821.074 2626.44 839.909 2606.72 863.999 2603.65 887.214 2608.91 960.801 2614.6 1035.26 2611.1 1150.46 2601.9 1196.45 2589.19 1259.09 2556.76 1336.62 2521.26 1389.18 2513.81 1399.69 2508.55 1409.33 2509.43 1409.77 2513.37 1413.71 2583.93 1376.91 2621.62 1352.39 2667.19 1321.72 2722.85 1266.97 2750.02 1226.24 2775.87 1186.82 2800.41 1132.5 2813.12 1084.76 2823.64 1044.9 2824.95 1033.07 2824.95 959.924 2825.39 897.727 2823.64 870.131 2817.5 841.661 2791.65 718.579 2733.8 602.943 2650.1 507.018 2631.7 485.993 2617.23 468.034 2618.11 467.158 2618.99 465.844 2638.27 477.233 2661.06 491.687 2848.62 613.017 2937.58 767.636 2976.58 1038.77L2984.91 1097.9 2983.59 1014.68C2981.4 915.247 2971.32 851.297 2945.91 774.645 2882.36 584.984 2740.38 434.307 2492.34 294.58 2466.04 279.25 2442.38 265.233 2440.19 263.043 2437.12 260.197 2436.9 258.882 2442.44 259.485ZM1996.5 252.074C2007.25 251.458 2000.43 254.661 1975.12 263.531 1782.3 330.547 1653.02 499.62 1641.63 699.793 1631.11 888.139 1728.4 1050.64 1905.44 1140.44L1949.26 1162.77 1905 1160.15C1717.44 1149.2 1571.07 1031.37 1523.3 853.098 1512.79 814.115 1511.47 801.412 1511.47 737.024 1511.47 672.636 1512.79 659.934 1523.3 620.95 1578.08 416.836 1742.42 284.555 1979.94 253.894 1987.39 252.909 1992.92 252.279 1996.5 252.074Z" fill="#FFFFFF" fill-rule="evenodd"/></g></svg>